# xmcd CD database file
#
# Track frame offsets:
#	150
#	22951
#	43342
#
# Disc length: 882 seconds
#
# Revision: 9
# Processed by: cddbd v1.5.1PL2 Copyright (c) Steve Scherf et al.
# Submitted via: CDex 1.40Beta9
#
DISCID=1e037003
DTITLE=Plastic Tree - 名前のない花
DYEAR=2005
DGENRE=Rock
TTITLE0=名前のない花
TTITLE1=パラノイア
TTITLE2=名前のない花 -Insturmental-
EXTD=YEAR: 2005 ID3G: 17
EXTT0=
EXTT1=
EXTT2=
PLAYORDER=
